<mxfile host="app.diagrams.net" modified="2024-10-16T07:22:28.690Z" agent="Mozilla/5.0 (Macintosh; Intel Mac OS X 10_15_7) AppleWebKit/537.36 (KHTML, like Gecko) Chrome/129.0.0.0 Safari/537.36" version="24.6.3" etag="foggKs--sw5pcvex3Ree" type="github">
  <diagram name="Page-1" id="KxsomhuIBZ_bpOjIGlNW">
    <mxGraphModel>
      <root>
        <mxCell id="0" />
        <mxCell id="1" parent="0" />
      </root>
    </mxGraphModel>
  </diagram>
</mxfile>
